<mxfile host="Electron" modified="2024-04-12T10:50:19.317Z" agent="Mozilla/5.0 (Windows NT 10.0; Win64; x64) AppleWebKit/537.36 (KHTML, like Gecko) draw.io/24.1.0 Chrome/120.0.6099.109 Electron/28.1.0 Safari/537.36" etag="JzLxhjJb_Bn6LP72IDDb" version="24.1.0" type="device">
  <diagram name="Page-1" id="c4acf3e9-155e-7222-9cf6-157b1a14988f">
    <mxGraphModel dx="1313" dy="776" grid="0" gridSize="10" guides="1" tooltips="1" connect="1" arrows="1" fold="1" page="1" pageScale="1" pageWidth="1654" pageHeight="1169" background="none" math="0" shadow="0">
      <root>
        <mxCell id="0" />
        <mxCell id="1" parent="0" />
        <mxCell id="FlNeyProKaOE8mYd7lIi-24" value="" style="rounded=0;whiteSpace=wrap;html=1;fillColor=none;" parent="1" vertex="1">
          <mxGeometry x="610" y="390" width="1020" height="760" as="geometry" />
        </mxCell>
        <mxCell id="FlNeyProKaOE8mYd7lIi-22" value="UML" style="shape=umlFrame;whiteSpace=wrap;html=1;rounded=0;shadow=0;comic=0;labelBackgroundColor=none;strokeWidth=1;fontFamily=Verdana;fontSize=10;align=center;" parent="1" vertex="1">
          <mxGeometry x="589" y="370" width="1061" height="799" as="geometry" />
        </mxCell>
        <mxCell id="5d2195bd80daf111-40" style="edgeStyle=orthogonalEdgeStyle;rounded=0;html=1;dashed=1;labelBackgroundColor=none;startFill=0;endArrow=open;endFill=0;endSize=10;fontFamily=Verdana;fontSize=10;" parent="1" edge="1">
          <mxGeometry relative="1" as="geometry">
            <Array as="points" />
            <mxPoint x="730" y="838" as="targetPoint" />
          </mxGeometry>
        </mxCell>
        <mxCell id="5d2195bd80daf111-39" style="edgeStyle=orthogonalEdgeStyle;rounded=0;html=1;dashed=1;labelBackgroundColor=none;startFill=0;endArrow=open;endFill=0;endSize=10;fontFamily=Verdana;fontSize=10;" parent="1" edge="1">
          <mxGeometry relative="1" as="geometry">
            <mxPoint x="730" y="978" as="targetPoint" />
          </mxGeometry>
        </mxCell>
        <mxCell id="5d2195bd80daf111-35" style="edgeStyle=orthogonalEdgeStyle;rounded=0;html=1;dashed=1;labelBackgroundColor=none;startFill=0;endArrow=open;endFill=0;endSize=10;fontFamily=Verdana;fontSize=10;" parent="1" edge="1">
          <mxGeometry relative="1" as="geometry">
            <Array as="points">
              <mxPoint x="545" y="970" />
              <mxPoint x="545" y="970" />
            </Array>
            <mxPoint x="545.1428571428578" y="963" as="sourcePoint" />
          </mxGeometry>
        </mxCell>
        <mxCell id="5d2195bd80daf111-36" style="edgeStyle=orthogonalEdgeStyle;rounded=0;html=1;dashed=1;labelBackgroundColor=none;startFill=0;endArrow=open;endFill=0;endSize=10;fontFamily=Verdana;fontSize=10;" parent="1" edge="1">
          <mxGeometry relative="1" as="geometry">
            <Array as="points">
              <mxPoint x="550" y="520" />
            </Array>
            <mxPoint x="550" y="823" as="sourcePoint" />
          </mxGeometry>
        </mxCell>
        <mxCell id="5d2195bd80daf111-34" style="edgeStyle=orthogonalEdgeStyle;rounded=0;html=1;dashed=1;labelBackgroundColor=none;startFill=0;endArrow=open;endFill=0;endSize=10;fontFamily=Verdana;fontSize=10;" parent="1" edge="1">
          <mxGeometry relative="1" as="geometry">
            <Array as="points">
              <mxPoint x="410" y="1029" />
              <mxPoint x="410" y="1029" />
            </Array>
            <mxPoint x="380" y="1029" as="sourcePoint" />
          </mxGeometry>
        </mxCell>
        <mxCell id="5d2195bd80daf111-26" style="edgeStyle=orthogonalEdgeStyle;rounded=0;html=1;dashed=1;labelBackgroundColor=none;startFill=0;endArrow=open;endFill=0;endSize=10;fontFamily=Verdana;fontSize=10;" parent="1" edge="1">
          <mxGeometry relative="1" as="geometry">
            <Array as="points" />
            <mxPoint x="685" y="300" as="targetPoint" />
          </mxGeometry>
        </mxCell>
        <mxCell id="5d2195bd80daf111-21" style="edgeStyle=orthogonalEdgeStyle;rounded=0;html=1;labelBackgroundColor=none;startFill=0;endArrow=open;endFill=0;endSize=10;fontFamily=Verdana;fontSize=10;dashed=1;" parent="1" edge="1">
          <mxGeometry relative="1" as="geometry">
            <mxPoint x="250" y="157.00000000000023" as="sourcePoint" />
          </mxGeometry>
        </mxCell>
        <mxCell id="5d2195bd80daf111-22" style="edgeStyle=orthogonalEdgeStyle;rounded=0;html=1;exitX=1;exitY=0.75;dashed=1;labelBackgroundColor=none;startFill=0;endArrow=open;endFill=0;endSize=10;fontFamily=Verdana;fontSize=10;" parent="1" edge="1">
          <mxGeometry relative="1" as="geometry">
            <Array as="points">
              <mxPoint x="530" y="192" />
              <mxPoint x="530" y="142" />
            </Array>
            <mxPoint x="250" y="191.99999999999977" as="sourcePoint" />
          </mxGeometry>
        </mxCell>
        <mxCell id="5d2195bd80daf111-23" style="edgeStyle=orthogonalEdgeStyle;rounded=0;html=1;dashed=1;labelBackgroundColor=none;startFill=0;endArrow=open;endFill=0;endSize=10;fontFamily=Verdana;fontSize=10;" parent="1" edge="1">
          <mxGeometry relative="1" as="geometry">
            <Array as="points">
              <mxPoint x="320" y="290" />
              <mxPoint x="320" y="120" />
            </Array>
            <mxPoint x="350" y="120.14285714285734" as="targetPoint" />
          </mxGeometry>
        </mxCell>
        <mxCell id="5d2195bd80daf111-24" style="edgeStyle=orthogonalEdgeStyle;rounded=0;html=1;dashed=1;labelBackgroundColor=none;startFill=0;endArrow=open;endFill=0;endSize=10;fontFamily=Verdana;fontSize=10;" parent="1" edge="1">
          <mxGeometry relative="1" as="geometry">
            <Array as="points">
              <mxPoint x="350" y="310" />
              <mxPoint x="350" y="210" />
              <mxPoint x="550" y="210" />
              <mxPoint x="550" y="160" />
            </Array>
            <mxPoint x="580" y="160.14285714285734" as="targetPoint" />
          </mxGeometry>
        </mxCell>
        <mxCell id="5d2195bd80daf111-25" style="edgeStyle=orthogonalEdgeStyle;rounded=0;html=1;dashed=1;labelBackgroundColor=none;startFill=0;endArrow=open;endFill=0;endSize=10;fontFamily=Verdana;fontSize=10;" parent="1" edge="1">
          <mxGeometry relative="1" as="geometry">
            <Array as="points">
              <mxPoint x="370" y="340" />
              <mxPoint x="370" y="300" />
            </Array>
            <mxPoint x="450" y="300.14285714285734" as="targetPoint" />
          </mxGeometry>
        </mxCell>
        <mxCell id="5d2195bd80daf111-27" style="edgeStyle=orthogonalEdgeStyle;rounded=0;html=1;exitX=1;exitY=0.75;dashed=1;labelBackgroundColor=none;startFill=0;endArrow=open;endFill=0;endSize=10;fontFamily=Verdana;fontSize=10;" parent="1" edge="1">
          <mxGeometry relative="1" as="geometry">
            <Array as="points">
              <mxPoint x="320" y="375" />
              <mxPoint x="320" y="440" />
            </Array>
            <mxPoint x="250" y="375" as="sourcePoint" />
          </mxGeometry>
        </mxCell>
        <mxCell id="5d2195bd80daf111-28" style="edgeStyle=orthogonalEdgeStyle;rounded=0;html=1;dashed=1;labelBackgroundColor=none;startFill=0;endArrow=open;endFill=0;endSize=10;fontFamily=Verdana;fontSize=10;" parent="1" edge="1">
          <mxGeometry relative="1" as="geometry">
            <Array as="points">
              <mxPoint x="320" y="490" />
              <mxPoint x="320" y="460" />
            </Array>
            <mxPoint x="250" y="490.14285714285734" as="sourcePoint" />
          </mxGeometry>
        </mxCell>
        <mxCell id="5d2195bd80daf111-29" style="edgeStyle=orthogonalEdgeStyle;rounded=0;html=1;dashed=1;labelBackgroundColor=none;startFill=0;endArrow=open;endFill=0;endSize=10;fontFamily=Verdana;fontSize=10;" parent="1" edge="1">
          <mxGeometry relative="1" as="geometry">
            <mxPoint x="250" y="520" as="sourcePoint" />
          </mxGeometry>
        </mxCell>
        <mxCell id="5d2195bd80daf111-30" style="edgeStyle=orthogonalEdgeStyle;rounded=0;html=1;dashed=1;labelBackgroundColor=none;startFill=0;endArrow=open;endFill=0;endSize=10;fontFamily=Verdana;fontSize=10;" parent="1" edge="1">
          <mxGeometry relative="1" as="geometry">
            <Array as="points">
              <mxPoint x="300" y="580" />
              <mxPoint x="300" y="642" />
            </Array>
            <mxPoint x="250" y="580.1428571428573" as="sourcePoint" />
          </mxGeometry>
        </mxCell>
        <mxCell id="5d2195bd80daf111-32" style="edgeStyle=orthogonalEdgeStyle;rounded=0;html=1;dashed=1;labelBackgroundColor=none;startFill=0;endArrow=open;endFill=0;endSize=10;fontFamily=Verdana;fontSize=10;" parent="1" edge="1">
          <mxGeometry relative="1" as="geometry">
            <Array as="points">
              <mxPoint x="170" y="780" />
            </Array>
            <mxPoint x="170" y="590" as="sourcePoint" />
          </mxGeometry>
        </mxCell>
        <mxCell id="Ms78DvNODfq8cEWLuFBq-132" value="Diagramme modèle physique de données&lt;br&gt;Projet Club GOLDORAK" style="rounded=0;whiteSpace=wrap;html=1;fontSize=16;labelBorderColor=none;fontColor=default;align=left;labelBackgroundColor=none;" parent="1" vertex="1">
          <mxGeometry x="1110" y="1030" width="320" height="90" as="geometry" />
        </mxCell>
        <mxCell id="Ms78DvNODfq8cEWLuFBq-133" value="&lt;b&gt;DESIGNATION&lt;/b&gt;" style="rounded=0;whiteSpace=wrap;html=1;fontSize=16;labelBorderColor=none;fontColor=default;align=left;labelBackgroundColor=none;" parent="1" vertex="1">
          <mxGeometry x="1110" y="1000" width="320" height="30" as="geometry" />
        </mxCell>
        <mxCell id="Ms78DvNODfq8cEWLuFBq-134" value="&lt;b&gt;Ref. :&lt;/b&gt; 2404DG003" style="rounded=0;whiteSpace=wrap;html=1;fontSize=16;labelBorderColor=none;fontColor=default;align=left;labelBackgroundColor=none;" parent="1" vertex="1">
          <mxGeometry x="1110" y="1120" width="200" height="30" as="geometry" />
        </mxCell>
        <mxCell id="Ms78DvNODfq8cEWLuFBq-135" value="&lt;b&gt;Rev. :&lt;/b&gt; 01" style="rounded=0;whiteSpace=wrap;html=1;fontSize=16;labelBorderColor=none;fontColor=default;align=left;labelBackgroundColor=none;" parent="1" vertex="1">
          <mxGeometry x="1310" y="1120" width="120" height="30" as="geometry" />
        </mxCell>
        <mxCell id="Ms78DvNODfq8cEWLuFBq-136" value="&lt;b&gt;CREATE :&lt;/b&gt; 2024-02-12&lt;br&gt;&lt;b&gt;BY :&lt;/b&gt; L.FOLLACO" style="rounded=0;whiteSpace=wrap;html=1;fontSize=16;labelBorderColor=none;fontColor=default;align=left;labelBackgroundColor=none;verticalAlign=top;spacing=2;spacingTop=0;" parent="1" vertex="1">
          <mxGeometry x="1430" y="1000" width="200" height="50" as="geometry" />
        </mxCell>
        <mxCell id="Ms78DvNODfq8cEWLuFBq-139" value="&lt;b&gt;MODIFY :&lt;/b&gt;&amp;nbsp;XXXX-XX-XX&lt;br&gt;&lt;b&gt;BY :&lt;/b&gt; NAME" style="rounded=0;whiteSpace=wrap;html=1;fontSize=16;labelBorderColor=none;fontColor=default;align=left;labelBackgroundColor=none;verticalAlign=top;spacing=2;spacingTop=0;" parent="1" vertex="1">
          <mxGeometry x="1430" y="1050" width="200" height="50" as="geometry" />
        </mxCell>
        <mxCell id="Ms78DvNODfq8cEWLuFBq-140" value="&lt;b&gt;CONTROL :&lt;/b&gt; 2024-02-12&lt;br&gt;&lt;b&gt;BY :&lt;/b&gt; L.FOLLACO" style="rounded=0;whiteSpace=wrap;html=1;fontSize=16;labelBorderColor=none;fontColor=default;align=left;labelBackgroundColor=none;verticalAlign=top;spacing=2;spacingTop=0;" parent="1" vertex="1">
          <mxGeometry x="1430" y="1100" width="200" height="50" as="geometry" />
        </mxCell>
        <mxCell id="PDSKNWpAh9eBpYjjKsDO-7" value="comment" style="swimlane;fontStyle=1;align=center;verticalAlign=top;childLayout=stackLayout;horizontal=1;startSize=26;horizontalStack=0;resizeParent=1;resizeParentMax=0;resizeLast=0;collapsible=1;marginBottom=0;whiteSpace=wrap;html=1;" parent="1" vertex="1">
          <mxGeometry x="635" y="830" width="425" height="294" as="geometry" />
        </mxCell>
        <mxCell id="FlNeyProKaOE8mYd7lIi-6" value="PK&lt;span style=&quot;white-space: pre;&quot;&gt;&#x9;&lt;/span&gt;id_comment&lt;span style=&quot;white-space: pre;&quot;&gt;&#x9;&lt;/span&gt;| INT(11)&lt;span style=&quot;white-space: pre;&quot;&gt;&#x9;&lt;/span&gt;&lt;span style=&quot;white-space: pre;&quot;&gt;&#x9;&lt;/span&gt;&lt;span style=&quot;white-space: pre;&quot;&gt;&#x9;&lt;/span&gt;| NOT NULL&lt;span style=&quot;white-space: pre;&quot;&gt;&#x9;&lt;/span&gt;|&amp;nbsp;AUTO_INCREMENT" style="text;strokeColor=none;fillColor=none;align=left;verticalAlign=top;spacingLeft=4;spacingRight=4;overflow=hidden;rotatable=0;points=[[0,0.5],[1,0.5]];portConstraint=eastwest;whiteSpace=wrap;html=1;" parent="PDSKNWpAh9eBpYjjKsDO-7" vertex="1">
          <mxGeometry y="26" width="425" height="26" as="geometry" />
        </mxCell>
        <mxCell id="fMot8v5gre9LW3CSVVqw-1" value="&lt;span style=&quot;white-space: pre;&quot;&gt;&#x9;&lt;/span&gt;date_ &lt;span style=&quot;white-space: pre;&quot;&gt;&#x9;&lt;/span&gt;&lt;span style=&quot;white-space: pre;&quot;&gt;&#x9;&lt;/span&gt;| DATE&lt;span style=&quot;white-space: pre;&quot;&gt;&#x9;&lt;/span&gt;&lt;span style=&quot;white-space: pre;&quot;&gt;&#x9;&lt;/span&gt;&lt;span style=&quot;white-space: pre;&quot;&gt;&#x9;&lt;/span&gt;| NOTNULL&lt;span style=&quot;white-space: pre;&quot;&gt;&#x9;&lt;/span&gt;|&amp;nbsp;AUTO_INCREMENT" style="text;strokeColor=none;fillColor=none;align=left;verticalAlign=top;spacingLeft=4;spacingRight=4;overflow=hidden;rotatable=0;points=[[0,0.5],[1,0.5]];portConstraint=eastwest;whiteSpace=wrap;html=1;" vertex="1" parent="PDSKNWpAh9eBpYjjKsDO-7">
          <mxGeometry y="52" width="425" height="26" as="geometry" />
        </mxCell>
        <mxCell id="FlNeyProKaOE8mYd7lIi-2" value="&lt;span style=&quot;white-space: pre;&quot;&gt;&#x9;&lt;/span&gt;pseudo&lt;span style=&quot;white-space: pre;&quot;&gt;&#x9;&lt;/span&gt;&lt;span style=&quot;white-space: pre;&quot;&gt;&#x9;&lt;/span&gt;| VARCHAR(30)&lt;span style=&quot;white-space: pre;&quot;&gt;&#x9;&lt;/span&gt;| NOTNULL&lt;span style=&quot;white-space: pre;&quot;&gt;&#x9;&lt;/span&gt;|&amp;nbsp;AUTO_INCREMENT" style="text;strokeColor=none;fillColor=none;align=left;verticalAlign=top;spacingLeft=4;spacingRight=4;overflow=hidden;rotatable=0;points=[[0,0.5],[1,0.5]];portConstraint=eastwest;whiteSpace=wrap;html=1;" parent="PDSKNWpAh9eBpYjjKsDO-7" vertex="1">
          <mxGeometry y="78" width="425" height="26" as="geometry" />
        </mxCell>
        <mxCell id="FlNeyProKaOE8mYd7lIi-3" value="&lt;span style=&quot;white-space: pre;&quot;&gt;&#x9;&lt;/span&gt;rating&lt;span style=&quot;white-space: pre;&quot;&gt;&#x9;&lt;/span&gt;&lt;span style=&quot;white-space: pre;&quot;&gt;&#x9;&lt;/span&gt;| INT(11)&lt;span style=&quot;white-space: pre;&quot;&gt;&#x9;&lt;/span&gt;&lt;span style=&quot;white-space: pre;&quot;&gt;&#x9;&lt;/span&gt;&lt;span style=&quot;white-space: pre;&quot;&gt;&#x9;&lt;/span&gt;| NOTNULL&lt;span style=&quot;white-space: pre;&quot;&gt;&#x9;&lt;/span&gt;|&amp;nbsp;AUTO_INCREMENT" style="text;strokeColor=none;fillColor=none;align=left;verticalAlign=top;spacingLeft=4;spacingRight=4;overflow=hidden;rotatable=0;points=[[0,0.5],[1,0.5]];portConstraint=eastwest;whiteSpace=wrap;html=1;" parent="PDSKNWpAh9eBpYjjKsDO-7" vertex="1">
          <mxGeometry y="104" width="425" height="26" as="geometry" />
        </mxCell>
        <mxCell id="FlNeyProKaOE8mYd7lIi-4" value="&lt;span style=&quot;white-space: pre;&quot;&gt;&#x9;&lt;/span&gt;comment&lt;span style=&quot;white-space: pre;&quot;&gt;&#x9;&lt;/span&gt;&lt;span style=&quot;white-space: pre;&quot;&gt;&#x9;&lt;/span&gt;| TEXT&lt;span style=&quot;white-space: pre;&quot;&gt;&#x9;&lt;/span&gt;&lt;span style=&quot;white-space: pre;&quot;&gt;&#x9;&lt;/span&gt;&lt;span style=&quot;white-space: pre;&quot;&gt;&#x9;&lt;/span&gt;| NOTNULL&lt;span style=&quot;white-space: pre;&quot;&gt;&#x9;&lt;/span&gt;|&amp;nbsp;AUTO_INCREMENT" style="text;strokeColor=none;fillColor=none;align=left;verticalAlign=top;spacingLeft=4;spacingRight=4;overflow=hidden;rotatable=0;points=[[0,0.5],[1,0.5]];portConstraint=eastwest;whiteSpace=wrap;html=1;" parent="PDSKNWpAh9eBpYjjKsDO-7" vertex="1">
          <mxGeometry y="130" width="425" height="26" as="geometry" />
        </mxCell>
        <mxCell id="fMot8v5gre9LW3CSVVqw-7" value="&lt;span style=&quot;white-space: pre;&quot;&gt;&#x9;&lt;/span&gt;publication&lt;span style=&quot;white-space: pre;&quot;&gt;&#x9;&lt;/span&gt;| TINYINT(1)&lt;span style=&quot;white-space: pre;&quot;&gt;&#x9;&lt;/span&gt;&lt;span style=&quot;white-space: pre;&quot;&gt;&#x9;&lt;/span&gt;| NOTNULL&lt;span style=&quot;white-space: pre;&quot;&gt;&#x9;&lt;/span&gt;|&amp;nbsp;AUTO_INCREMENT" style="text;strokeColor=none;fillColor=none;align=left;verticalAlign=top;spacingLeft=4;spacingRight=4;overflow=hidden;rotatable=0;points=[[0,0.5],[1,0.5]];portConstraint=eastwest;whiteSpace=wrap;html=1;" vertex="1" parent="PDSKNWpAh9eBpYjjKsDO-7">
          <mxGeometry y="156" width="425" height="26" as="geometry" />
        </mxCell>
        <mxCell id="FlNeyProKaOE8mYd7lIi-5" value="FK&lt;span style=&quot;white-space: pre;&quot;&gt;&#x9;&lt;/span&gt;id_member&lt;span style=&quot;white-space: pre;&quot;&gt;&#x9;&lt;/span&gt;| INT(11)&lt;span style=&quot;white-space: pre;&quot;&gt;&#x9;&lt;/span&gt;&lt;span style=&quot;white-space: pre;&quot;&gt;&#x9;&lt;/span&gt;&lt;span style=&quot;white-space: pre;&quot;&gt;&#x9;&lt;/span&gt;| NOTNULL&lt;span style=&quot;white-space: pre;&quot;&gt;&#x9;&lt;/span&gt;|&amp;nbsp;AUTO_INCREMENT" style="text;strokeColor=none;fillColor=none;align=left;verticalAlign=top;spacingLeft=4;spacingRight=4;overflow=hidden;rotatable=0;points=[[0,0.5],[1,0.5]];portConstraint=eastwest;whiteSpace=wrap;html=1;" parent="PDSKNWpAh9eBpYjjKsDO-7" vertex="1">
          <mxGeometry y="182" width="425" height="26" as="geometry" />
        </mxCell>
        <mxCell id="PDSKNWpAh9eBpYjjKsDO-9" value="" style="line;strokeWidth=1;fillColor=none;align=left;verticalAlign=middle;spacingTop=-1;spacingLeft=3;spacingRight=3;rotatable=0;labelPosition=right;points=[];portConstraint=eastwest;strokeColor=inherit;" parent="PDSKNWpAh9eBpYjjKsDO-7" vertex="1">
          <mxGeometry y="208" width="425" height="8" as="geometry" />
        </mxCell>
        <mxCell id="PDSKNWpAh9eBpYjjKsDO-10" value="+ newComment()" style="text;strokeColor=none;fillColor=none;align=left;verticalAlign=top;spacingLeft=4;spacingRight=4;overflow=hidden;rotatable=0;points=[[0,0.5],[1,0.5]];portConstraint=eastwest;whiteSpace=wrap;html=1;" parent="PDSKNWpAh9eBpYjjKsDO-7" vertex="1">
          <mxGeometry y="216" width="425" height="26" as="geometry" />
        </mxCell>
        <mxCell id="PDSKNWpAh9eBpYjjKsDO-11" value="+ updateComment()" style="text;strokeColor=none;fillColor=none;align=left;verticalAlign=top;spacingLeft=4;spacingRight=4;overflow=hidden;rotatable=0;points=[[0,0.5],[1,0.5]];portConstraint=eastwest;whiteSpace=wrap;html=1;" parent="PDSKNWpAh9eBpYjjKsDO-7" vertex="1">
          <mxGeometry y="242" width="425" height="26" as="geometry" />
        </mxCell>
        <mxCell id="FlNeyProKaOE8mYd7lIi-7" value="+ deleteComment()" style="text;strokeColor=none;fillColor=none;align=left;verticalAlign=top;spacingLeft=4;spacingRight=4;overflow=hidden;rotatable=0;points=[[0,0.5],[1,0.5]];portConstraint=eastwest;whiteSpace=wrap;html=1;" parent="PDSKNWpAh9eBpYjjKsDO-7" vertex="1">
          <mxGeometry y="268" width="425" height="26" as="geometry" />
        </mxCell>
        <mxCell id="PDSKNWpAh9eBpYjjKsDO-13" value="subscription" style="swimlane;fontStyle=1;align=center;verticalAlign=top;childLayout=stackLayout;horizontal=1;startSize=26;horizontalStack=0;resizeParent=1;resizeParentMax=0;resizeLast=0;collapsible=1;marginBottom=0;whiteSpace=wrap;html=1;" parent="1" vertex="1">
          <mxGeometry x="1138" y="559" width="453" height="78" as="geometry" />
        </mxCell>
        <mxCell id="PDSKNWpAh9eBpYjjKsDO-14" value="PK&lt;span style=&quot;white-space: pre;&quot;&gt;&#x9;&lt;/span&gt;id_subsription&lt;span style=&quot;white-space: pre;&quot;&gt;&#x9;&lt;/span&gt;| INT(11)&lt;span style=&quot;white-space: pre;&quot;&gt;&#x9;&lt;/span&gt;&lt;span style=&quot;white-space: pre;&quot;&gt;&#x9;&lt;/span&gt;&lt;span style=&quot;white-space: pre;&quot;&gt;&#x9;&lt;/span&gt;| NOT NULL&lt;span style=&quot;white-space: pre;&quot;&gt;&#x9;&lt;/span&gt;|&amp;nbsp;AUTO_INCREMENT" style="text;strokeColor=none;fillColor=none;align=left;verticalAlign=top;spacingLeft=4;spacingRight=4;overflow=hidden;rotatable=0;points=[[0,0.5],[1,0.5]];portConstraint=eastwest;whiteSpace=wrap;html=1;" parent="PDSKNWpAh9eBpYjjKsDO-13" vertex="1">
          <mxGeometry y="26" width="453" height="26" as="geometry" />
        </mxCell>
        <mxCell id="fMot8v5gre9LW3CSVVqw-2" value="&lt;span style=&quot;white-space: pre;&quot;&gt;&#x9;&lt;/span&gt;subscription&lt;span style=&quot;white-space: pre;&quot;&gt;&#x9;&lt;/span&gt;| VARCHAR(20)&lt;span style=&quot;white-space: pre;&quot;&gt;&#x9;&lt;/span&gt;| NOT NULL&lt;span style=&quot;white-space: pre;&quot;&gt;&#x9;&lt;/span&gt;|&amp;nbsp;AUTO_INCREMENT" style="text;strokeColor=none;fillColor=none;align=left;verticalAlign=top;spacingLeft=4;spacingRight=4;overflow=hidden;rotatable=0;points=[[0,0.5],[1,0.5]];portConstraint=eastwest;whiteSpace=wrap;html=1;" vertex="1" parent="PDSKNWpAh9eBpYjjKsDO-13">
          <mxGeometry y="52" width="453" height="26" as="geometry" />
        </mxCell>
        <mxCell id="PDSKNWpAh9eBpYjjKsDO-53" value="type" style="swimlane;fontStyle=1;align=center;verticalAlign=top;childLayout=stackLayout;horizontal=1;startSize=26;horizontalStack=0;resizeParent=1;resizeParentMax=0;resizeLast=0;collapsible=1;marginBottom=0;whiteSpace=wrap;html=1;" parent="1" vertex="1">
          <mxGeometry x="1139" y="427" width="451" height="78" as="geometry" />
        </mxCell>
        <mxCell id="PDSKNWpAh9eBpYjjKsDO-54" value="PK&lt;span style=&quot;white-space: pre;&quot;&gt;&#x9;&lt;/span&gt;id_type&lt;span style=&quot;white-space: pre;&quot;&gt;&#x9;&lt;/span&gt;&lt;span style=&quot;white-space: pre;&quot;&gt;&#x9;&lt;/span&gt;| INT(11)&lt;span style=&quot;white-space: pre;&quot;&gt;&#x9;&lt;/span&gt;&lt;span style=&quot;white-space: pre;&quot;&gt;&#x9;&lt;/span&gt;&lt;span style=&quot;white-space: pre;&quot;&gt;&#x9;&lt;/span&gt;| NOT NULL&lt;span style=&quot;white-space: pre;&quot;&gt;&#x9;&lt;/span&gt;|&amp;nbsp;AUTO_INCREMENT" style="text;strokeColor=none;fillColor=none;align=left;verticalAlign=top;spacingLeft=4;spacingRight=4;overflow=hidden;rotatable=0;points=[[0,0.5],[1,0.5]];portConstraint=eastwest;whiteSpace=wrap;html=1;" parent="PDSKNWpAh9eBpYjjKsDO-53" vertex="1">
          <mxGeometry y="26" width="451" height="26" as="geometry" />
        </mxCell>
        <mxCell id="fMot8v5gre9LW3CSVVqw-8" value="&lt;span style=&quot;white-space: pre;&quot;&gt;&#x9;&lt;/span&gt;type&lt;span style=&quot;white-space: pre;&quot;&gt;&#x9;&lt;/span&gt;&lt;span style=&quot;white-space: pre;&quot;&gt;&#x9;&lt;/span&gt;&lt;span style=&quot;white-space: pre;&quot;&gt;&#x9;&lt;/span&gt;| VARCHAR(20)&lt;span style=&quot;white-space: pre;&quot;&gt;&#x9;&lt;/span&gt;| NOT NULL&lt;span style=&quot;white-space: pre;&quot;&gt;&#x9;&lt;/span&gt;|&amp;nbsp;AUTO_INCREMENT" style="text;strokeColor=none;fillColor=none;align=left;verticalAlign=top;spacingLeft=4;spacingRight=4;overflow=hidden;rotatable=0;points=[[0,0.5],[1,0.5]];portConstraint=eastwest;whiteSpace=wrap;html=1;" vertex="1" parent="PDSKNWpAh9eBpYjjKsDO-53">
          <mxGeometry y="52" width="451" height="26" as="geometry" />
        </mxCell>
        <mxCell id="PDSKNWpAh9eBpYjjKsDO-59" value="user" style="swimlane;fontStyle=1;align=center;verticalAlign=top;childLayout=stackLayout;horizontal=1;startSize=26;horizontalStack=0;resizeParent=1;resizeParentMax=0;resizeLast=0;collapsible=1;marginBottom=0;whiteSpace=wrap;html=1;" parent="1" vertex="1">
          <mxGeometry x="634" y="427" width="426" height="372" as="geometry" />
        </mxCell>
        <mxCell id="PDSKNWpAh9eBpYjjKsDO-60" value="PK&lt;span style=&quot;white-space: pre;&quot;&gt;&#x9;&lt;/span&gt;id_user&lt;span style=&quot;white-space: pre;&quot;&gt;&#x9;&lt;span style=&quot;white-space: pre;&quot;&gt;&#x9;&lt;/span&gt;&lt;/span&gt;| INT(11)&lt;span style=&quot;white-space: pre;&quot;&gt;&#x9;&lt;/span&gt;&lt;span style=&quot;white-space: pre;&quot;&gt;&#x9;&lt;/span&gt;&lt;span style=&quot;white-space: pre;&quot;&gt;&#x9;&lt;/span&gt;| NOT NULL&lt;span style=&quot;white-space: pre;&quot;&gt;&#x9;&lt;/span&gt;|&amp;nbsp;AUTO_INCREMENT" style="text;strokeColor=none;fillColor=none;align=left;verticalAlign=top;spacingLeft=4;spacingRight=4;overflow=hidden;rotatable=0;points=[[0,0.5],[1,0.5]];portConstraint=eastwest;whiteSpace=wrap;html=1;" parent="PDSKNWpAh9eBpYjjKsDO-59" vertex="1">
          <mxGeometry y="26" width="426" height="26" as="geometry" />
        </mxCell>
        <mxCell id="fMot8v5gre9LW3CSVVqw-3" value="&lt;span style=&quot;white-space: pre;&quot;&gt;&#x9;&lt;/span&gt;name&lt;span style=&quot;white-space: pre;&quot;&gt;&#x9;&lt;span style=&quot;white-space: pre;&quot;&gt;&#x9;&lt;/span&gt;&lt;/span&gt;| VARCHAR(50)&lt;span style=&quot;white-space: pre;&quot;&gt;&#x9;&lt;/span&gt;| NOT NULL&lt;span style=&quot;white-space: pre;&quot;&gt;&#x9;&lt;/span&gt;|&amp;nbsp;AUTO_INCREMENT" style="text;strokeColor=none;fillColor=none;align=left;verticalAlign=top;spacingLeft=4;spacingRight=4;overflow=hidden;rotatable=0;points=[[0,0.5],[1,0.5]];portConstraint=eastwest;whiteSpace=wrap;html=1;" vertex="1" parent="PDSKNWpAh9eBpYjjKsDO-59">
          <mxGeometry y="52" width="426" height="26" as="geometry" />
        </mxCell>
        <mxCell id="PDSKNWpAh9eBpYjjKsDO-68" value="&lt;span style=&quot;white-space: pre;&quot;&gt;&#x9;&lt;/span&gt;surname&lt;span style=&quot;white-space: pre;&quot;&gt;&#x9;&lt;span style=&quot;white-space: pre;&quot;&gt;&#x9;&lt;/span&gt;&lt;/span&gt;| VARCHAR(50)&lt;span style=&quot;white-space: pre;&quot;&gt;&#x9;&lt;/span&gt;| NOT NULL&lt;span style=&quot;white-space: pre;&quot;&gt;&#x9;&lt;/span&gt;|&amp;nbsp;AUTO_INCREMENT" style="text;strokeColor=none;fillColor=none;align=left;verticalAlign=top;spacingLeft=4;spacingRight=4;overflow=hidden;rotatable=0;points=[[0,0.5],[1,0.5]];portConstraint=eastwest;whiteSpace=wrap;html=1;" parent="PDSKNWpAh9eBpYjjKsDO-59" vertex="1">
          <mxGeometry y="78" width="426" height="26" as="geometry" />
        </mxCell>
        <mxCell id="PDSKNWpAh9eBpYjjKsDO-72" value="&lt;span style=&quot;white-space: pre;&quot;&gt;&#x9;&lt;/span&gt;pseudo&lt;span style=&quot;white-space: pre;&quot;&gt;&#x9;&lt;span style=&quot;white-space: pre;&quot;&gt;&#x9;&lt;/span&gt;&lt;/span&gt;| VARCHAR(20)&lt;span style=&quot;white-space: pre;&quot;&gt;&#x9;&lt;/span&gt;| NOT NULL&lt;span style=&quot;white-space: pre;&quot;&gt;&#x9;&lt;/span&gt;|&amp;nbsp;AUTO_INCREMENT" style="text;strokeColor=none;fillColor=none;align=left;verticalAlign=top;spacingLeft=4;spacingRight=4;overflow=hidden;rotatable=0;points=[[0,0.5],[1,0.5]];portConstraint=eastwest;whiteSpace=wrap;html=1;" parent="PDSKNWpAh9eBpYjjKsDO-59" vertex="1">
          <mxGeometry y="104" width="426" height="26" as="geometry" />
        </mxCell>
        <mxCell id="PDSKNWpAh9eBpYjjKsDO-71" value="&lt;span style=&quot;white-space: pre;&quot;&gt;&#x9;&lt;/span&gt;email&lt;span style=&quot;white-space: pre;&quot;&gt;&#x9;&lt;span style=&quot;white-space: pre;&quot;&gt;&#x9;&lt;/span&gt;&lt;/span&gt;| VARCHAR(255)&lt;span style=&quot;white-space: pre;&quot;&gt;&#x9;&lt;/span&gt;| NOT NULL&lt;span style=&quot;white-space: pre;&quot;&gt;&#x9;&lt;/span&gt;|&amp;nbsp;AUTO_INCREMENT" style="text;strokeColor=none;fillColor=none;align=left;verticalAlign=top;spacingLeft=4;spacingRight=4;overflow=hidden;rotatable=0;points=[[0,0.5],[1,0.5]];portConstraint=eastwest;whiteSpace=wrap;html=1;" parent="PDSKNWpAh9eBpYjjKsDO-59" vertex="1">
          <mxGeometry y="130" width="426" height="26" as="geometry" />
        </mxCell>
        <mxCell id="PDSKNWpAh9eBpYjjKsDO-69" value="&lt;span style=&quot;white-space: pre;&quot;&gt;&#x9;&lt;/span&gt;phone&lt;span style=&quot;white-space: pre;&quot;&gt;&#x9;&lt;span style=&quot;white-space: pre;&quot;&gt;&#x9;&lt;/span&gt;&lt;/span&gt;| VARCHAR(18)&lt;span style=&quot;white-space: pre;&quot;&gt;&#x9;&lt;/span&gt;| NOT NULL&lt;span style=&quot;white-space: pre;&quot;&gt;&#x9;&lt;/span&gt;|&amp;nbsp;AUTO_INCREMENT" style="text;strokeColor=none;fillColor=none;align=left;verticalAlign=top;spacingLeft=4;spacingRight=4;overflow=hidden;rotatable=0;points=[[0,0.5],[1,0.5]];portConstraint=eastwest;whiteSpace=wrap;html=1;" parent="PDSKNWpAh9eBpYjjKsDO-59" vertex="1">
          <mxGeometry y="156" width="426" height="26" as="geometry" />
        </mxCell>
        <mxCell id="PDSKNWpAh9eBpYjjKsDO-70" value="&lt;span style=&quot;white-space: pre;&quot;&gt;&#x9;&lt;/span&gt;password&lt;span style=&quot;white-space: pre;&quot;&gt;&#x9;&lt;span style=&quot;white-space: pre;&quot;&gt;&#x9;&lt;/span&gt;&lt;/span&gt;| VARCHAR(255)&lt;span style=&quot;white-space: pre;&quot;&gt;&#x9;&lt;/span&gt;| NOT NULL&lt;span style=&quot;white-space: pre;&quot;&gt;&#x9;&lt;/span&gt;|&amp;nbsp;AUTO_INCREMENT" style="text;strokeColor=none;fillColor=none;align=left;verticalAlign=top;spacingLeft=4;spacingRight=4;overflow=hidden;rotatable=0;points=[[0,0.5],[1,0.5]];portConstraint=eastwest;whiteSpace=wrap;html=1;" parent="PDSKNWpAh9eBpYjjKsDO-59" vertex="1">
          <mxGeometry y="182" width="426" height="26" as="geometry" />
        </mxCell>
        <mxCell id="FlNeyProKaOE8mYd7lIi-8" value="&lt;span style=&quot;white-space: pre;&quot;&gt;&#x9;&lt;/span&gt;avatar&lt;span style=&quot;white-space: pre;&quot;&gt;&#x9;&lt;span style=&quot;white-space: pre;&quot;&gt;&#x9;&lt;/span&gt;&lt;/span&gt;| VARCHAR(255)&lt;span style=&quot;white-space: pre;&quot;&gt;&#x9;&lt;/span&gt;| NOT NULL&lt;span style=&quot;white-space: pre;&quot;&gt;&#x9;&lt;/span&gt;|&amp;nbsp;AUTO_INCREMENT" style="text;strokeColor=none;fillColor=none;align=left;verticalAlign=top;spacingLeft=4;spacingRight=4;overflow=hidden;rotatable=0;points=[[0,0.5],[1,0.5]];portConstraint=eastwest;whiteSpace=wrap;html=1;" parent="PDSKNWpAh9eBpYjjKsDO-59" vertex="1">
          <mxGeometry y="208" width="426" height="26" as="geometry" />
        </mxCell>
        <mxCell id="fMot8v5gre9LW3CSVVqw-6" value="FK&lt;span style=&quot;white-space: pre;&quot;&gt;&#x9;&lt;/span&gt;id_subcription&lt;span style=&quot;white-space: pre;&quot;&gt;&#x9;&lt;/span&gt;| INT(11)&lt;span style=&quot;white-space: pre;&quot;&gt;&#x9;&lt;/span&gt;&lt;span style=&quot;white-space: pre;&quot;&gt;&#x9;&lt;/span&gt;&lt;span style=&quot;white-space: pre;&quot;&gt;&#x9;&lt;/span&gt;| NOT NULL&lt;span style=&quot;white-space: pre;&quot;&gt;&#x9;&lt;/span&gt;|&amp;nbsp;AUTO_INCREMENT" style="text;strokeColor=none;fillColor=none;align=left;verticalAlign=top;spacingLeft=4;spacingRight=4;overflow=hidden;rotatable=0;points=[[0,0.5],[1,0.5]];portConstraint=eastwest;whiteSpace=wrap;html=1;" vertex="1" parent="PDSKNWpAh9eBpYjjKsDO-59">
          <mxGeometry y="234" width="426" height="26" as="geometry" />
        </mxCell>
        <mxCell id="fMot8v5gre9LW3CSVVqw-5" value="FK&lt;span style=&quot;white-space: pre;&quot;&gt;&#x9;&lt;/span&gt;id_type&lt;span style=&quot;white-space: pre;&quot;&gt;&#x9;&lt;/span&gt;&lt;span style=&quot;white-space: pre;&quot;&gt;&#x9;&lt;/span&gt;| INT(11)&lt;span style=&quot;white-space: pre;&quot;&gt;&#x9;&lt;/span&gt;&lt;span style=&quot;white-space: pre;&quot;&gt;&#x9;&lt;/span&gt;&lt;span style=&quot;white-space: pre;&quot;&gt;&#x9;&lt;/span&gt;| NOT NULL&lt;span style=&quot;white-space: pre;&quot;&gt;&#x9;&lt;/span&gt;|&amp;nbsp;AUTO_INCREMENT" style="text;strokeColor=none;fillColor=none;align=left;verticalAlign=top;spacingLeft=4;spacingRight=4;overflow=hidden;rotatable=0;points=[[0,0.5],[1,0.5]];portConstraint=eastwest;whiteSpace=wrap;html=1;" vertex="1" parent="PDSKNWpAh9eBpYjjKsDO-59">
          <mxGeometry y="260" width="426" height="26" as="geometry" />
        </mxCell>
        <mxCell id="PDSKNWpAh9eBpYjjKsDO-61" value="" style="line;strokeWidth=1;fillColor=none;align=left;verticalAlign=middle;spacingTop=-1;spacingLeft=3;spacingRight=3;rotatable=0;labelPosition=right;points=[];portConstraint=eastwest;strokeColor=inherit;" parent="PDSKNWpAh9eBpYjjKsDO-59" vertex="1">
          <mxGeometry y="286" width="426" height="8" as="geometry" />
        </mxCell>
        <mxCell id="PDSKNWpAh9eBpYjjKsDO-62" value="+ newUser()" style="text;strokeColor=none;fillColor=none;align=left;verticalAlign=top;spacingLeft=4;spacingRight=4;overflow=hidden;rotatable=0;points=[[0,0.5],[1,0.5]];portConstraint=eastwest;whiteSpace=wrap;html=1;" parent="PDSKNWpAh9eBpYjjKsDO-59" vertex="1">
          <mxGeometry y="294" width="426" height="26" as="geometry" />
        </mxCell>
        <mxCell id="PDSKNWpAh9eBpYjjKsDO-63" value="+ updateUser()" style="text;strokeColor=none;fillColor=none;align=left;verticalAlign=top;spacingLeft=4;spacingRight=4;overflow=hidden;rotatable=0;points=[[0,0.5],[1,0.5]];portConstraint=eastwest;whiteSpace=wrap;html=1;" parent="PDSKNWpAh9eBpYjjKsDO-59" vertex="1">
          <mxGeometry y="320" width="426" height="26" as="geometry" />
        </mxCell>
        <mxCell id="PDSKNWpAh9eBpYjjKsDO-64" value="+ deleteUser()" style="text;strokeColor=none;fillColor=none;align=left;verticalAlign=top;spacingLeft=4;spacingRight=4;overflow=hidden;rotatable=0;points=[[0,0.5],[1,0.5]];portConstraint=eastwest;whiteSpace=wrap;html=1;" parent="PDSKNWpAh9eBpYjjKsDO-59" vertex="1">
          <mxGeometry y="346" width="426" height="26" as="geometry" />
        </mxCell>
        <mxCell id="PDSKNWpAh9eBpYjjKsDO-73" value="home" style="swimlane;fontStyle=1;align=center;verticalAlign=top;childLayout=stackLayout;horizontal=1;startSize=26;horizontalStack=0;resizeParent=1;resizeParentMax=0;resizeLast=0;collapsible=1;marginBottom=0;whiteSpace=wrap;html=1;" parent="1" vertex="1">
          <mxGeometry x="1138" y="683" width="452" height="268" as="geometry" />
        </mxCell>
        <mxCell id="fMot8v5gre9LW3CSVVqw-9" value="PK&lt;span style=&quot;white-space: pre;&quot;&gt;&#x9;&lt;/span&gt;id_home&lt;span style=&quot;white-space: pre;&quot;&gt;&#x9;&lt;span style=&quot;white-space: pre;&quot;&gt;&#x9;&lt;/span&gt;&lt;span style=&quot;white-space: pre;&quot;&gt;&#x9;&lt;/span&gt;&lt;/span&gt;| INT(11)&lt;span style=&quot;white-space: pre;&quot;&gt;&#x9;&lt;/span&gt;&lt;span style=&quot;white-space: pre;&quot;&gt;&#x9;&lt;/span&gt;&lt;span style=&quot;white-space: pre;&quot;&gt;&#x9;&lt;/span&gt;| NOT NULL&lt;span style=&quot;white-space: pre;&quot;&gt;&#x9;&lt;/span&gt;|&amp;nbsp;AUTO_INCREMENT" style="text;strokeColor=none;fillColor=none;align=left;verticalAlign=top;spacingLeft=4;spacingRight=4;overflow=hidden;rotatable=0;points=[[0,0.5],[1,0.5]];portConstraint=eastwest;whiteSpace=wrap;html=1;" vertex="1" parent="PDSKNWpAh9eBpYjjKsDO-73">
          <mxGeometry y="26" width="452" height="26" as="geometry" />
        </mxCell>
        <mxCell id="PDSKNWpAh9eBpYjjKsDO-74" value="&lt;span style=&quot;white-space: pre;&quot;&gt;&#x9;&lt;/span&gt;titre1&lt;span style=&quot;white-space: pre;&quot;&gt;&#x9;&lt;span style=&quot;white-space: pre;&quot;&gt;&#x9;&lt;/span&gt;&lt;/span&gt;&lt;span style=&quot;white-space: pre;&quot;&gt;&#x9;&lt;/span&gt;| VARCHAR(255)&lt;span style=&quot;white-space: pre;&quot;&gt;&#x9;&lt;/span&gt;| NOTNULL&lt;span style=&quot;white-space: pre;&quot;&gt;&#x9;&lt;/span&gt;|&amp;nbsp;AUTO_INCREMENT" style="text;strokeColor=none;fillColor=none;align=left;verticalAlign=top;spacingLeft=4;spacingRight=4;overflow=hidden;rotatable=0;points=[[0,0.5],[1,0.5]];portConstraint=eastwest;whiteSpace=wrap;html=1;" parent="PDSKNWpAh9eBpYjjKsDO-73" vertex="1">
          <mxGeometry y="52" width="452" height="26" as="geometry" />
        </mxCell>
        <mxCell id="PDSKNWpAh9eBpYjjKsDO-75" value="&lt;span style=&quot;white-space: pre;&quot;&gt;&#x9;&lt;/span&gt;titre_chapter1&lt;span style=&quot;white-space: pre;&quot;&gt;&#x9;&lt;/span&gt;&lt;span style=&quot;white-space: pre;&quot;&gt;&lt;span style=&quot;white-space: pre;&quot;&gt;&#x9;&lt;/span&gt;&lt;/span&gt;| VARCHAR(255)&lt;span style=&quot;white-space: pre;&quot;&gt;&#x9;&lt;/span&gt;| NOTNULL&lt;span style=&quot;white-space: pre;&quot;&gt;&#x9;&lt;/span&gt;|&amp;nbsp;AUTO_INCREMENT" style="text;strokeColor=none;fillColor=none;align=left;verticalAlign=top;spacingLeft=4;spacingRight=4;overflow=hidden;rotatable=0;points=[[0,0.5],[1,0.5]];portConstraint=eastwest;whiteSpace=wrap;html=1;" parent="PDSKNWpAh9eBpYjjKsDO-73" vertex="1">
          <mxGeometry y="78" width="452" height="26" as="geometry" />
        </mxCell>
        <mxCell id="PDSKNWpAh9eBpYjjKsDO-76" value="&lt;span style=&quot;white-space: pre;&quot;&gt;&#x9;&lt;/span&gt;chapter1&lt;span style=&quot;white-space: pre;&quot;&gt;&#x9;&lt;/span&gt;&lt;span style=&quot;white-space: pre;&quot;&gt;&#x9;&lt;/span&gt;&lt;span style=&quot;white-space: pre;&quot;&gt;&#x9;&lt;/span&gt;| TEXT&lt;span style=&quot;white-space: pre;&quot;&gt;&#x9;&lt;/span&gt;&lt;span style=&quot;white-space: pre;&quot;&gt;&#x9;&lt;/span&gt;&lt;span style=&quot;white-space: pre;&quot;&gt;&#x9;&lt;/span&gt;| NOTNULL&lt;span style=&quot;white-space: pre;&quot;&gt;&#x9;&lt;/span&gt;|&amp;nbsp;AUTO_INCREMENT" style="text;strokeColor=none;fillColor=none;align=left;verticalAlign=top;spacingLeft=4;spacingRight=4;overflow=hidden;rotatable=0;points=[[0,0.5],[1,0.5]];portConstraint=eastwest;whiteSpace=wrap;html=1;" parent="PDSKNWpAh9eBpYjjKsDO-73" vertex="1">
          <mxGeometry y="104" width="452" height="26" as="geometry" />
        </mxCell>
        <mxCell id="PDSKNWpAh9eBpYjjKsDO-77" value="&lt;span style=&quot;white-space: pre;&quot;&gt;&#x9;&lt;/span&gt;img_chapter1&lt;span style=&quot;white-space: pre;&quot;&gt;&#x9;&lt;/span&gt;&lt;span style=&quot;white-space: pre;&quot;&gt;&#x9;&lt;/span&gt;| VARCHAR(255)&lt;span style=&quot;white-space: pre;&quot;&gt;&#x9;&lt;/span&gt;| NOTNULL&lt;span style=&quot;white-space: pre;&quot;&gt;&#x9;&lt;/span&gt;|&amp;nbsp;AUTO_INCREMENT" style="text;strokeColor=none;fillColor=none;align=left;verticalAlign=top;spacingLeft=4;spacingRight=4;overflow=hidden;rotatable=0;points=[[0,0.5],[1,0.5]];portConstraint=eastwest;whiteSpace=wrap;html=1;" parent="PDSKNWpAh9eBpYjjKsDO-73" vertex="1">
          <mxGeometry y="130" width="452" height="26" as="geometry" />
        </mxCell>
        <mxCell id="PDSKNWpAh9eBpYjjKsDO-78" value="&lt;span style=&quot;white-space: pre;&quot;&gt;&#x9;&lt;/span&gt;titre_chapter2&lt;span style=&quot;white-space: pre;&quot;&gt;&#x9;&lt;/span&gt;&lt;span style=&quot;white-space: pre;&quot;&gt;&#x9;&lt;/span&gt;| VARCHAR(255)&lt;span style=&quot;white-space: pre;&quot;&gt;&#x9;&lt;/span&gt;| NOTNULL&lt;span style=&quot;white-space: pre;&quot;&gt;&#x9;&lt;/span&gt;|&amp;nbsp;AUTO_INCREMENT" style="text;strokeColor=none;fillColor=none;align=left;verticalAlign=top;spacingLeft=4;spacingRight=4;overflow=hidden;rotatable=0;points=[[0,0.5],[1,0.5]];portConstraint=eastwest;whiteSpace=wrap;html=1;" parent="PDSKNWpAh9eBpYjjKsDO-73" vertex="1">
          <mxGeometry y="156" width="452" height="26" as="geometry" />
        </mxCell>
        <mxCell id="PDSKNWpAh9eBpYjjKsDO-79" value="&lt;span style=&quot;white-space: pre;&quot;&gt;&#x9;&lt;/span&gt;chapter2&lt;span style=&quot;white-space: pre;&quot;&gt;&#x9;&lt;/span&gt;&lt;span style=&quot;white-space: pre;&quot;&gt;&#x9;&lt;/span&gt;&lt;span style=&quot;white-space: pre;&quot;&gt;&#x9;&lt;/span&gt;| TEXT&lt;span style=&quot;white-space: pre;&quot;&gt;&#x9;&lt;/span&gt;&lt;span style=&quot;white-space: pre;&quot;&gt;&#x9;&lt;/span&gt;&lt;span style=&quot;white-space: pre;&quot;&gt;&#x9;&lt;/span&gt;| NOTNULL&lt;span style=&quot;white-space: pre;&quot;&gt;&#x9;&lt;/span&gt;|&amp;nbsp;AUTO_INCREMENT" style="text;strokeColor=none;fillColor=none;align=left;verticalAlign=top;spacingLeft=4;spacingRight=4;overflow=hidden;rotatable=0;points=[[0,0.5],[1,0.5]];portConstraint=eastwest;whiteSpace=wrap;html=1;" parent="PDSKNWpAh9eBpYjjKsDO-73" vertex="1">
          <mxGeometry y="182" width="452" height="26" as="geometry" />
        </mxCell>
        <mxCell id="PDSKNWpAh9eBpYjjKsDO-80" value="&lt;span style=&quot;white-space: pre;&quot;&gt;&#x9;&lt;/span&gt;img_chapter2&lt;span style=&quot;white-space: pre;&quot;&gt;&#x9;&lt;/span&gt;&lt;span style=&quot;white-space: pre;&quot;&gt;&#x9;&lt;/span&gt;| VARCHAR(255)&lt;span style=&quot;white-space: pre;&quot;&gt;&#x9;&lt;/span&gt;| NOTNULL&lt;span style=&quot;white-space: pre;&quot;&gt;&#x9;&lt;/span&gt;|&amp;nbsp;AUTO_INCREMENT" style="text;strokeColor=none;fillColor=none;align=left;verticalAlign=top;spacingLeft=4;spacingRight=4;overflow=hidden;rotatable=0;points=[[0,0.5],[1,0.5]];portConstraint=eastwest;whiteSpace=wrap;html=1;" parent="PDSKNWpAh9eBpYjjKsDO-73" vertex="1">
          <mxGeometry y="208" width="452" height="26" as="geometry" />
        </mxCell>
        <mxCell id="PDSKNWpAh9eBpYjjKsDO-84" value="" style="line;strokeWidth=1;fillColor=none;align=left;verticalAlign=middle;spacingTop=-1;spacingLeft=3;spacingRight=3;rotatable=0;labelPosition=right;points=[];portConstraint=eastwest;strokeColor=inherit;" parent="PDSKNWpAh9eBpYjjKsDO-73" vertex="1">
          <mxGeometry y="234" width="452" height="8" as="geometry" />
        </mxCell>
        <mxCell id="PDSKNWpAh9eBpYjjKsDO-86" value="+ updateHome()" style="text;strokeColor=none;fillColor=none;align=left;verticalAlign=top;spacingLeft=4;spacingRight=4;overflow=hidden;rotatable=0;points=[[0,0.5],[1,0.5]];portConstraint=eastwest;whiteSpace=wrap;html=1;" parent="PDSKNWpAh9eBpYjjKsDO-73" vertex="1">
          <mxGeometry y="242" width="452" height="26" as="geometry" />
        </mxCell>
      </root>
    </mxGraphModel>
  </diagram>
</mxfile>
